<?xml version="1.0" standalone="no"?>
<!DOCTYPE svg PUBLIC "-//W3C//DTD SVG 20010904//EN"
 "http://www.w3.org/TR/2001/REC-SVG-20010904/DTD/svg10.dtd">
<svg version="1.0" xmlns="http://www.w3.org/2000/svg"
 width="16.000000pt" height="16.000000pt" viewBox="0 0 16.000000 16.000000"
 preserveAspectRatio="xMidYMid meet">
<metadata>
Created by potrace 1.11, written by Peter Selinger 2001-2013
</metadata>
<g transform="translate(0.000000,16.000000) scale(0.002619,-0.002619)"
fill="#000000" stroke="none">
<path d="M2848 6105 c-2 -2 -39 -6 -83 -9 -44 -4 -91 -8 -105 -11 -14 -3 -41
-7 -60 -10 -19 -3 -51 -8 -70 -12 -19 -4 -42 -7 -50 -8 -74 -9 -424 -109 -447
-127 -7 -6 -13 -7 -13 -2 0 4 -5 3 -12 -4 -7 -7 -19 -12 -28 -12 -8 0 -59 -20
-112 -44 -54 -24 -98 -41 -98 -38 0 4 -4 3 -8 -3 -4 -5 -47 -30 -97 -55 -143
-72 -406 -238 -470 -297 -11 -10 -30 -26 -43 -34 -64 -45 -278 -249 -382 -365
-136 -151 -342 -450 -405 -587 -8 -17 -19 -39 -25 -47 -9 -14 -39 -79 -92
-200 -44 -100 -126 -348 -153 -460 -2 -8 -8 -35 -14 -60 -9 -43 -12 -56 -26
-140 -3 -19 -8 -48 -11 -65 -7 -33 -9 -51 -21 -170 -15 -153 -8 -570 12 -686
2 -13 9 -55 16 -94 6 -38 13 -79 15 -90 1 -11 6 -31 9 -45 4 -14 8 -34 10 -45
3 -11 6 -27 8 -35 15 -57 21 -80 33 -117 7 -23 16 -52 18 -65 25 -120 184
-481 284 -648 12 -19 31 -51 42 -70 30 -52 44 -74 51 -80 3 -3 21 -27 39 -55
19 -27 38 -54 42 -60 5 -5 28 -36 53 -68 113 -149 311 -354 452 -468 43 -35
80 -67 81 -71 2 -5 8 -8 13 -8 5 0 19 -9 32 -20 36 -32 166 -120 176 -120 5 0
11 -3 13 -8 4 -9 153 -98 223 -132 28 -14 51 -28 53 -32 2 -5 10 -8 17 -8 8 0
39 -13 70 -29 31 -16 120 -53 198 -81 78 -29 151 -56 162 -60 27 -11 184 -53
204 -55 9 -1 23 -5 31 -8 28 -10 148 -33 225 -43 22 -3 54 -7 70 -10 119 -19
534 -26 670 -11 68 7 81 9 175 22 95 13 250 47 369 81 252 73 399 135 694 291
119 63 477 326 512 376 8 12 15 18 15 14 0 -8 183 174 240 240 89 101 232 290
260 343 7 14 16 27 20 30 13 9 171 290 175 310 1 3 14 32 29 65 80 171 165
426 206 619 28 129 28 131 45 256 21 156 27 521 12 675 -39 384 -133 715 -300
1053 -70 140 -146 275 -159 280 -4 2 -8 8 -8 14 0 21 -172 257 -269 368 -72
83 -244 254 -307 305 -27 22 -59 50 -72 63 -13 12 -25 22 -28 22 -3 0 -24 15
-47 34 -40 31 -149 109 -185 131 -9 6 -30 19 -47 30 -16 11 -39 25 -50 31
-137 75 -266 144 -269 144 -3 0 -40 16 -82 36 -43 20 -86 37 -95 39 -9 2 -25
8 -35 13 -18 10 -48 22 -69 28 -5 1 -44 14 -85 28 -41 15 -76 27 -77 27 -2 0
-8 1 -15 4 -24 8 -133 34 -167 40 -19 3 -38 8 -41 10 -7 4 -43 11 -105 20 -11
2 -36 6 -55 9 -33 5 -168 22 -200 25 -37 4 -479 9 -482 6z m-1213 -1379 c66
-21 127 -40 135 -43 8 -4 17 -7 20 -8 3 0 14 -4 25 -7 11 -4 79 -25 152 -48
143 -44 173 -64 203 -135 10 -22 20 -69 24 -105 14 -153 24 -242 29 -247 3 -2
31 -6 63 -8 33 -3 78 -7 102 -10 50 -6 107 -13 177 -20 27 -3 86 -10 130 -15
44 -5 107 -12 140 -15 33 -4 71 -8 85 -10 14 -2 57 -6 95 -10 39 -4 84 -9 100
-11 17 -2 53 -6 80 -9 28 -2 66 -7 85 -10 33 -5 97 -12 184 -20 22 -2 60 -6
85 -9 25 -4 66 -8 91 -11 25 -3 63 -7 85 -10 92 -11 143 -16 185 -20 25 -2 61
-6 80 -9 56 -7 165 -19 280 -31 36 -4 76 -8 90 -11 14 -2 54 -7 90 -10 36 -3
79 -8 95 -10 17 -2 57 -7 90 -10 33 -3 74 -12 92 -19 32 -14 102 -81 104 -100
0 -5 3 -19 5 -30 10 -41 3 -104 -31 -265 -2 -13 -7 -40 -10 -60 -3 -20 -8 -47
-10 -60 -7 -34 -11 -59 -31 -170 -9 -52 -17 -99 -18 -105 -2 -5 -6 -32 -10
-60 -4 -27 -10 -60 -12 -72 -6 -33 -14 -74 -19 -103 -3 -14 -7 -35 -10 -48 -7
-39 -44 -89 -83 -114 l-37 -23 -1117 0 c-738 0 -1119 -3 -1120 -10 -3 -24 -5
-32 -11 -60 -4 -16 -9 -43 -11 -60 -3 -16 -8 -49 -11 -72 -7 -40 -6 -43 16
-43 13 -1 50 -2 82 -3 33 -1 61 1 64 6 2 4 8 5 13 2 9 -6 203 -9 225 -5 6 1
14 2 19 1 32 -6 139 -5 143 2 2 4 8 5 13 2 15 -9 141 -11 147 -2 2 4 8 5 13 2
15 -9 141 -11 147 -2 2 4 8 5 13 2 15 -9 141 -11 147 -2 2 4 8 5 13 2 15 -9
141 -11 147 -2 2 4 8 5 13 2 15 -9 141 -11 147 -2 2 4 8 5 13 2 14 -8 141 -11
146 -4 2 4 19 3 38 -1 19 -4 37 -5 40 -3 3 3 24 5 48 4 114 -4 179 -4 184 1 3
3 21 2 42 -3 21 -4 41 -4 48 1 6 6 13 7 16 5 3 -3 43 -6 89 -7 153 -1 230 -68
224 -195 -3 -61 -36 -112 -96 -148 -34 -20 -51 -20 -1229 -19 -657 1 -1202 3
-1211 6 -29 7 -67 37 -95 73 -31 41 -38 100 -23 182 5 26 12 64 15 83 3 19 7
42 10 51 2 9 7 32 9 50 3 19 7 45 10 59 2 14 7 36 10 50 2 14 7 39 10 55 3 17
8 46 12 65 12 60 8 172 -12 310 -3 19 -7 64 -10 100 -2 36 -7 81 -10 100 -2
19 -7 62 -10 95 -3 33 -7 74 -9 90 -2 17 -7 66 -11 110 -3 44 -8 91 -10 105
-2 14 -7 54 -10 90 -6 65 -8 88 -21 210 -16 152 -23 225 -29 297 -2 31 -8 59
-12 63 -6 6 -133 51 -153 55 -3 1 -32 9 -65 20 -33 10 -62 19 -65 20 -48 10
-179 63 -196 78 -108 93 -80 261 51 314 45 19 106 10 240 -31z m798 -2820 c59
-21 95 -45 130 -87 130 -152 62 -398 -126 -459 -82 -26 -187 -10 -261 41 -43
29 -95 106 -106 155 -9 39 -7 130 3 171 9 34 63 109 96 132 77 55 187 74 264
47z m1673 -1 c68 -20 127 -64 161 -122 34 -58 37 -70 37 -158 0 -182 -152
-305 -338 -272 -120 21 -212 126 -220 254 -9 141 63 255 187 294 66 21 111 22
173 4z"/>
</g>
</svg>
